<svg xmlns="http://www.w3.org/2000/svg" viewBox="0 0 64 64">
  <defs>
    <linearGradient id="g" x1="0" y1="0" x2="1" y2="1">
      <stop offset="0" stop-color="#667eea"/>
      <stop offset="1" stop-color="#764ba2"/>
    </linearGradient>
  </defs>
  <rect width="64" height="64" rx="14" fill="url(#g)"/>
  <path fill="#fff" d="M32 14c-6 0-11 4-12 9-3 1-5 4-5 7 0 3 2 6 5 7 1 2 3 3 5 3v6c0 2 2 4 4 4h3v-9h6a3 3 0 0 0 0-6h-4v-3h5a3 3 0 0 0 0-6h-5c-1-4-4-6-7-6l1-2c1-2 3-3 4-3z"/>
  <path fill="#22c55e" stroke="#fff" stroke-width="2" d="M46 40l-6 6-3-3" fill="none" stroke-linecap="round" stroke-linejoin="round"/>
</svg>
